<svg xmlns="http://www.w3.org/2000/svg" xmlns:xlink="http://www.w3.org/1999/xlink" viewBox="0 0 155.63396 179.71062">
  <defs>
    <linearGradient id="c">
      <stop offset="0" stop-color="#c93d39"/>
      <stop offset="1" stop-color="#fff" stop-opacity="0"/>
    </linearGradient>
    <linearGradient id="b">
      <stop offset="0" stop-color="#3b972e"/>
      <stop offset="1" stop-color="#fff" stop-opacity="0"/>
    </linearGradient>
    <linearGradient id="a">
      <stop offset="0" stop-color="#945bb0"/>
      <stop offset="1" stop-color="#fff" stop-opacity="0"/>
    </linearGradient>
    <radialGradient id="f" cx="414.02301" cy="687.40204" r="86.830666" fx="414.02301" fy="687.40204" gradientTransform="matrix(.0142 -1.5297 1.71535 .01591 -1033.5146 1628.7627)" gradientUnits="userSpaceOnUse" xlink:href="#a"/>
    <radialGradient id="d" cx="499.3504" cy="645.45337" r="86.830666" fx="499.3504" fy="645.45337" gradientTransform="matrix(-1.26566 1.227 -1.1253 -1.16075 1436.5452 1012.4852)" gradientUnits="userSpaceOnUse" xlink:href="#b"/>
    <radialGradient id="e" cx="580.789" cy="628.65375" r="86.830666" fx="580.789" fy="628.65375" gradientTransform="matrix(1.72341 -.00186 .00163 1.51192 -998.84418 55.629146)" gradientUnits="userSpaceOnUse" xlink:href="#c"/>
  </defs>
  <path fill="#fff" d="M155.17530024 134.51811l-77.358322 44.6629L.4586607 134.51811l4e-7-89.32565L77.81697923.52962l77.358321 44.66284z"/>
  <text x="124.75384" y="841.2403" font-family="sans-serif" font-size="40" font-weight="400" letter-spacing="0" style="line-height:125%" transform="translate(2.4e-7 -872.65159)" word-spacing="0"/>
  <path fill="none" stroke="url(#d)" stroke-width="4.45108843" d="M152.82938 1005.652l-75.072644 43.3432-75.072645-43.3432 4e-7-86.68644 75.0726456-43.34321 75.072643 43.34322z" transform="translate(2.4e-7 -872.65159)"/>
  <path fill="none" stroke="url(#e)" stroke-width="4.45108843" d="M152.82938 1005.652l-75.072644 43.3432-75.072645-43.3432 4e-7-86.68644 75.0726456-43.34321 75.072643 43.34322z" transform="translate(2.4e-7 -872.65159)"/>
  <path fill="none" stroke="url(#f)" stroke-width="4.45108843" d="M152.82938 1005.652l-75.072644 43.3432-75.072645-43.3432 4e-7-86.68644 75.0726456-43.34321 75.072643 43.34322z" transform="translate(2.4e-7 -872.65159)"/>
  <path fill="none" stroke="#3e3e3e" stroke-width=".91732138" d="M155.17530024 134.51811l-77.358322 44.6629L.4586607 134.51811l4e-7-89.32565L77.81697923.52962l77.358321 44.66284z"/>
  <text x="28.932497" y="940.22125" fill="#1a1a1a" font-family="Comfortaa" font-size="23.60500145" font-weight="400" letter-spacing="0" style="line-height:125%;-inkscape-font-specification:'Comfortaa, Normal';text-align:start" transform="translate(2.4e-7 -872.65159)" word-spacing="0">
    <tspan x="28.932497" y="940.22125">BioTools</tspan>
  </text>
  <path fill="#945bb0" d="M89.7459562 115.75455698l-9.4532287 9.45206644 12.34347478 12.34216723c2.61043237 2.61043237 6.83960012 2.61043237 9.45003249 0 2.61130406-2.61130406 2.61246631-6.83945484.00203395-9.4532287L89.7459562 115.75455698z"/>
  <path fill="#4266d5" stroke="#4266d5" stroke-width=".14528" d="M60.84015395 105.75506684l7.3617447 7.3617447 9.4532287-9.45308341-7.36058245-7.36087301 8.9015918-8.90275407c.73106054-.73091525.73106054-1.91772636 0-2.64994915l-1.64692015-1.6457579c-.90467288-.90467287-2.18940426-1.32192364-3.45292442-1.11881898l-14.22967487 2.2809321c-.83014307.1330786-1.59621663.5244691-2.19056652 1.11765674l-.6295082.63067046-.51429935-.51560688c-.73091525-.73091525-1.91772636-.73091525-2.6487869 0l-3.84780171 3.84809228c-.73207751.73091525-.73207751 1.91772636 0 2.6487869l.51429934.5154616-7.44077827 7.43961601c-.73091526.73091525-.73091526 1.91772636 0 2.6487869l9.11951525 9.11951525c.73091525.73091525 1.91772636.73091525 2.6487869 0l5.96267615-5.96441954z"/>
  <path fill="#cb3c33" d="M110.42166145 92.03329888c-.2586025-.25831193-.59667441-.3881943-.93401991-.3881943-.3373455 0-.67570798.12988237-.9340199.3881943l-5.24672499 5.24323821c-.46025433.46257884-1.06506454.69256072-1.66842193.69256072-.60350268 0-1.20802233-.23012716-1.66856722-.69256072l-3.83879421-3.83995647c-.4457261-.4399148-.69139847-1.04123825-.69139847-1.66740496 0-.62616671.24581765-1.22603733.6903815-1.6694389l5.24672497-5.24556273c.51560689-.51560688.51560689-1.3527235 0-1.86716812-1.1966903-1.19552805-2.77954096-1.81036274-4.37343307-1.81036274-1.23998443 0-2.48636128.37221325-3.56246728 1.13247553l-2.8507293 2.01361268c-2.70980545 1.91206035-4.39159336 4.96109998-4.56970946 8.27324585l-.3373455 6.30597823-29.9519801 29.95386877c-2.43667473 2.437837-2.43667473 6.3850118 0 8.82168654 1.21935435 1.21848265 2.81557098 1.8286683 4.4119329 1.8286683 1.59621662 0 3.191271-.60916868 4.41062534-1.82750604l29.9551763-29.95372349 6.30365372-.3373455c3.31083834-.1772444 6.35886099-1.85903231 8.2720836-4.56883777l2.01477494-2.85160098c1.73626876-2.45715954 1.4486098-5.80751466-.67774193-7.9338664zm-49.96941124 43.5403789c-1.46095881 0-2.64559069-1.18448659-2.64559069-2.64559068 0-1.46081353 1.1844866-2.64530012 2.64559069-2.64530012 1.46081352 0 2.64530012 1.1844866 2.64530012 2.64530012 0 1.46110409-1.1844866 2.64559068-2.64530012 2.64559068z"/>
  <path fill="#3b972e" stroke="#4266d5" stroke-width=".2502653" d="M58.71068024 134.674035c-.80121-.80121-.90713-2.41538-.2173-3.31148.88768-1.15312 3.20872-1.1492 3.94901.007 1.16283 1.81559.0782 3.97059-1.99838 3.97059-.81673 0-1.22398-.15643-1.73333-.66578z"/>
</svg>
